<svg xmlns="http://www.w3.org/2000/svg" xmlns:xlink="http://www.w3.org/1999/xlink" zoomAndPan="magnify" preserveAspectRatio="xMidYMid meet" version="1.0" viewBox="0.27 56.72 370.48 261.58"><defs><clipPath id="31a2d2fdc9"><path d="M 164 56.71875 L 305 56.71875 L 305 238 L 164 238 Z M 164 56.71875 " clip-rule="nonzero"/></clipPath><clipPath id="fe4db640e3"><path d="M 0 255 L 249 255 L 249 318.46875 L 0 318.46875 Z M 0 255 " clip-rule="nonzero"/></clipPath></defs><path fill="#3d4d54" d="M 292.042969 82.136719 L 269.042969 110.835938 C 271.351562 112.296875 273.609375 113.8125 275.875 115.414062 L 318.28125 101.351562 C 310.191406 94.050781 301.445312 87.644531 292.042969 82.136719 Z M 292.042969 82.136719 " fill-opacity="1" fill-rule="nonzero"/><path fill="#3d4d54" d="M 314.78125 278.105469 L 359.46875 278.105469 C 361.355469 273.355469 363.011719 268.527344 364.433594 263.621094 C 365.855469 258.714844 367.035156 253.75 367.980469 248.730469 C 368.921875 243.710938 369.625 238.65625 370.082031 233.566406 C 370.535156 228.480469 370.746094 223.378906 370.714844 218.273438 C 370.679688 213.164062 370.398438 208.066406 369.875 202.988281 C 369.347656 197.90625 368.582031 192.859375 367.570312 187.851562 C 366.558594 182.84375 365.308594 177.898438 363.820312 173.011719 C 362.332031 168.125 360.613281 163.320312 358.664062 158.597656 L 324.5 185.683594 C 325.542969 189.507812 326.40625 193.375 327.089844 197.28125 C 327.773438 201.183594 328.273438 205.113281 328.59375 209.066406 C 328.910156 213.019531 329.046875 216.976562 329 220.941406 C 328.953125 224.90625 328.722656 228.859375 328.304688 232.804688 C 327.890625 236.746094 327.296875 240.664062 326.519531 244.550781 C 325.738281 248.4375 324.785156 252.28125 323.648438 256.082031 C 322.515625 259.882812 321.207031 263.621094 319.726562 267.300781 C 318.246094 270.976562 316.597656 274.578125 314.78125 278.105469 Z M 314.78125 278.105469 " fill-opacity="1" fill-rule="nonzero"/><path fill="#3d4d54" d="M 77.628906 183.535156 C 78.566406 180.316406 79.628906 177.140625 80.816406 174.003906 C 82.003906 170.867188 83.308594 167.785156 84.738281 164.75 C 86.167969 161.71875 87.714844 158.746094 89.375 155.832031 C 91.039062 152.921875 92.8125 150.078125 94.695312 147.304688 C 96.582031 144.53125 98.570312 141.835938 100.667969 139.21875 C 102.765625 136.601562 104.960938 134.070312 107.253906 131.625 C 109.550781 129.183594 111.9375 126.832031 114.417969 124.574219 C 116.894531 122.316406 119.460938 120.160156 122.109375 118.101562 C 124.757812 116.046875 127.480469 114.09375 130.28125 112.253906 C 133.082031 110.410156 135.953125 108.679688 138.890625 107.0625 C 141.824219 105.445312 144.820312 103.941406 147.875 102.558594 C 150.929688 101.175781 154.035156 99.914062 157.1875 98.777344 C 160.34375 97.636719 163.535156 96.621094 166.769531 95.734375 C 170 94.84375 173.265625 94.082031 176.558594 93.449219 C 179.847656 92.816406 183.160156 92.3125 186.496094 91.9375 C 189.828125 91.566406 193.167969 91.324219 196.519531 91.210938 L 212.878906 60.339844 L 211.648438 60.339844 C 209.421875 60.339844 207.195312 60.386719 204.972656 60.480469 C 202.75 60.574219 200.527344 60.714844 198.308594 60.902344 C 196.089844 61.089844 193.878906 61.324219 191.667969 61.601562 C 189.460938 61.882812 187.261719 62.207031 185.066406 62.582031 C 182.871094 62.953125 180.683594 63.371094 178.507812 63.835938 C 176.332031 64.300781 174.164062 64.808594 172.007812 65.363281 C 169.851562 65.917969 167.710938 66.519531 165.578125 67.164062 C 163.449219 67.808594 161.332031 68.5 159.230469 69.234375 C 157.128906 69.964844 155.042969 70.742188 152.976562 71.566406 C 150.90625 72.386719 148.855469 73.25 146.824219 74.160156 C 144.789062 75.066406 142.777344 76.015625 140.785156 77.007812 C 138.792969 78 136.820312 79.03125 134.871094 80.109375 C 132.921875 81.183594 130.996094 82.296875 129.09375 83.453125 C 127.191406 84.609375 125.3125 85.804688 123.460938 87.039062 C 121.609375 88.273438 119.785156 89.542969 117.984375 90.855469 C 116.183594 92.167969 114.414062 93.515625 112.671875 94.898438 C 110.929688 96.285156 109.21875 97.707031 107.535156 99.164062 C 105.851562 100.621094 104.199219 102.113281 102.582031 103.640625 C 100.960938 105.164062 99.371094 106.726562 97.816406 108.320312 C 96.261719 109.910156 94.742188 111.535156 93.257812 113.195312 C 91.769531 114.851562 90.320312 116.539062 88.902344 118.253906 C 87.488281 119.972656 86.109375 121.71875 84.765625 123.496094 C 83.425781 125.273438 82.121094 127.074219 80.855469 128.90625 C 79.585938 130.734375 78.359375 132.59375 77.171875 134.472656 C 75.980469 136.355469 74.832031 138.261719 73.726562 140.191406 C 72.617188 142.125 71.546875 144.074219 70.523438 146.050781 C 69.496094 148.027344 68.511719 150.023438 67.566406 152.039062 C 66.625 154.054688 65.722656 156.089844 64.867188 158.144531 C 64.007812 160.199219 63.195312 162.269531 62.425781 164.359375 C 61.65625 166.445312 60.929688 168.550781 60.246094 170.667969 C 59.5625 172.789062 58.925781 174.921875 58.332031 177.066406 C 57.742188 179.210938 57.195312 181.367188 56.691406 183.535156 Z M 77.628906 183.535156 " fill-opacity="1" fill-rule="nonzero"/><g clip-path="url(#31a2d2fdc9)"><path fill="#49c559" d="M 231 56.71875 L 168.65625 174.722656 L 207.355469 164.910156 L 164.363281 237.285156 L 304.792969 120.484375 L 227.417969 139.832031 L 294.050781 56.71875 Z M 231 56.71875 " fill-opacity="1" fill-rule="nonzero"/></g><path fill="#f1f1f1" d="M 152.953125 244.445312 L 177.933594 186.40625 L 138.425781 201.207031 L 173.699219 134.4375 C 168.574219 134.886719 163.542969 135.8125 158.59375 137.21875 C 153.648438 138.625 148.878906 140.480469 144.285156 142.792969 C 139.691406 145.101562 135.359375 147.824219 131.28125 150.957031 C 127.207031 154.09375 123.460938 157.582031 120.046875 161.425781 L 87.738281 197.871094 L 46.140625 197.871094 C 44.640625 197.871094 43.140625 197.945312 41.648438 198.09375 C 40.152344 198.238281 38.667969 198.457031 37.195312 198.75 C 35.722656 199.042969 34.265625 199.40625 32.828125 199.84375 C 31.390625 200.277344 29.980469 200.785156 28.589844 201.359375 C 27.203125 201.933594 25.847656 202.574219 24.523438 203.28125 C 23.199219 203.988281 21.910156 204.761719 20.664062 205.59375 C 19.414062 206.429688 18.207031 207.320312 17.046875 208.273438 C 15.886719 209.226562 14.773438 210.234375 13.710938 211.296875 C 12.652344 212.359375 11.644531 213.46875 10.691406 214.628906 C 9.738281 215.792969 8.84375 216.996094 8.007812 218.246094 C 7.175781 219.492188 6.402344 220.78125 5.695312 222.105469 C 4.988281 223.429688 4.34375 224.785156 3.769531 226.171875 C 3.195312 227.558594 2.691406 228.972656 2.253906 230.410156 C 1.816406 231.847656 1.453125 233.300781 1.160156 234.773438 C 0.867188 236.246094 0.648438 237.730469 0.5 239.226562 C 0.351562 240.722656 0.277344 242.21875 0.277344 243.722656 L 0.277344 244.445312 Z M 152.953125 244.445312 " fill-opacity="1" fill-rule="nonzero"/><path fill="#f1f1f1" d="M 358.527344 134.109375 L 312.160156 134.109375 L 173.628906 244.445312 L 260.203125 244.445312 L 316.257812 191.421875 L 282.585938 191.421875 Z M 358.527344 134.109375 " fill-opacity="1" fill-rule="nonzero"/><g clip-path="url(#fe4db640e3)"><path fill="#f1f1f1" d="M 0.277344 255.1875 L 0.277344 269.167969 C 0.277344 269.800781 0.339844 270.429688 0.464844 271.054688 C 0.589844 271.675781 0.773438 272.28125 1.015625 272.867188 C 1.257812 273.457031 1.558594 274.011719 1.910156 274.542969 C 2.261719 275.070312 2.664062 275.558594 3.113281 276.007812 C 3.5625 276.457031 4.050781 276.859375 4.578125 277.210938 C 5.109375 277.5625 5.664062 277.863281 6.25 278.105469 C 6.839844 278.347656 7.445312 278.53125 8.066406 278.65625 C 8.691406 278.78125 9.320312 278.84375 9.953125 278.84375 L 29.757812 278.84375 C 30 280.210938 30.304688 281.566406 30.671875 282.910156 C 31.035156 284.253906 31.457031 285.578125 31.933594 286.882812 C 32.414062 288.191406 32.949219 289.472656 33.539062 290.734375 C 34.128906 291.992188 34.773438 293.222656 35.472656 294.429688 C 36.171875 295.632812 36.921875 296.800781 37.722656 297.941406 C 38.519531 299.078125 39.371094 300.179688 40.265625 301.242188 C 41.160156 302.308594 42.101562 303.332031 43.089844 304.3125 C 44.074219 305.296875 45.101562 306.234375 46.167969 307.125 C 47.234375 308.019531 48.339844 308.863281 49.480469 309.660156 C 50.621094 310.457031 51.792969 311.203125 53 311.898438 C 54.203125 312.589844 55.4375 313.230469 56.699219 313.820312 C 57.960938 314.40625 59.246094 314.9375 60.554688 315.410156 C 61.859375 315.886719 63.1875 316.304688 64.53125 316.664062 C 65.875 317.023438 67.230469 317.324219 68.601562 317.5625 C 69.972656 317.804688 71.351562 317.984375 72.738281 318.105469 C 74.121094 318.226562 75.511719 318.289062 76.902344 318.289062 C 78.292969 318.289062 79.683594 318.226562 81.070312 318.105469 C 82.457031 317.984375 83.832031 317.804688 85.203125 317.5625 C 86.574219 317.324219 87.929688 317.023438 89.273438 316.664062 C 90.621094 316.304688 91.945312 315.886719 93.253906 315.410156 C 94.5625 314.9375 95.84375 314.40625 97.105469 313.820312 C 98.367188 313.230469 99.601562 312.589844 100.808594 311.898438 C 102.011719 311.203125 103.1875 310.457031 104.328125 309.660156 C 105.46875 308.863281 106.570312 308.019531 107.640625 307.125 C 108.707031 306.234375 109.734375 305.296875 110.71875 304.3125 C 111.703125 303.332031 112.644531 302.308594 113.539062 301.242188 C 114.4375 300.179688 115.285156 299.078125 116.085938 297.941406 C 116.886719 296.800781 117.632812 295.632812 118.332031 294.429688 C 119.03125 293.222656 119.675781 291.992188 120.265625 290.734375 C 120.859375 289.472656 121.394531 288.191406 121.871094 286.882812 C 122.351562 285.578125 122.773438 284.253906 123.136719 282.910156 C 123.5 281.566406 123.804688 280.210938 124.050781 278.84375 L 223.808594 278.84375 L 248.816406 255.1875 Z M 0.277344 255.1875 " fill-opacity="1" fill-rule="nonzero"/></g></svg>