<svg xmlns="http://www.w3.org/2000/svg" xmlns:xlink="http://www.w3.org/1999/xlink" width="500" zoomAndPan="magnify" viewBox="0 0 375 374.999991" height="500" preserveAspectRatio="xMidYMid meet" version="1.0"><defs><g/><clipPath id="9d50f3573c"><path d="M 174 77.753906 L 253 77.753906 L 253 178 L 174 178 Z M 174 77.753906 " clip-rule="nonzero"/></clipPath><clipPath id="9311255e8d"><path d="M 83.65625 120 L 183 120 L 183 182 L 83.65625 182 Z M 83.65625 120 " clip-rule="nonzero"/></clipPath><clipPath id="89552956d6"><path d="M 83.65625 187 L 222 187 L 222 222.503906 L 83.65625 222.503906 Z M 83.65625 187 " clip-rule="nonzero"/></clipPath></defs><path fill="#d1d3d4" d="M 245.394531 91.832031 L 232.65625 107.722656 C 233.9375 108.535156 235.183594 109.375 236.441406 110.257812 L 259.925781 102.472656 C 255.445312 98.429688 250.601562 94.882812 245.394531 91.832031 Z M 245.394531 91.832031 " fill-opacity="1" fill-rule="nonzero"/><path fill="#d1d3d4" d="M 257.988281 200.359375 L 282.738281 200.359375 C 283.78125 197.730469 284.699219 195.054688 285.484375 192.339844 C 286.273438 189.621094 286.925781 186.871094 287.449219 184.09375 C 287.972656 181.3125 288.359375 178.511719 288.613281 175.695312 C 288.867188 172.875 288.980469 170.054688 288.964844 167.222656 C 288.945312 164.394531 288.789062 161.574219 288.5 158.757812 C 288.207031 155.945312 287.78125 153.152344 287.222656 150.378906 C 286.660156 147.605469 285.96875 144.863281 285.144531 142.15625 C 284.320312 139.449219 283.371094 136.789062 282.289062 134.175781 L 263.371094 149.175781 C 264.527344 153.421875 265.28125 157.738281 265.636719 162.125 C 265.992188 166.511719 265.9375 170.894531 265.476562 175.273438 C 265.015625 179.648438 264.15625 183.945312 262.898438 188.164062 C 261.640625 192.382812 260.003906 196.445312 257.988281 200.359375 Z M 257.988281 200.359375 " fill-opacity="1" fill-rule="nonzero"/><path fill="#d1d3d4" d="M 126.648438 147.988281 C 127.167969 146.203125 127.757812 144.445312 128.414062 142.707031 C 129.074219 140.972656 129.796875 139.261719 130.589844 137.582031 C 131.378906 135.902344 132.234375 134.257812 133.15625 132.644531 C 134.078125 131.03125 135.058594 129.457031 136.101562 127.921875 C 137.148438 126.386719 138.25 124.894531 139.410156 123.445312 C 140.570312 121.996094 141.785156 120.59375 143.058594 119.238281 C 144.328125 117.886719 145.652344 116.582031 147.023438 115.332031 C 148.398438 114.082031 149.816406 112.886719 151.28125 111.75 C 152.75 110.609375 154.257812 109.53125 155.808594 108.507812 C 157.363281 107.488281 158.949219 106.53125 160.578125 105.632812 C 162.203125 104.738281 163.863281 103.90625 165.554688 103.140625 C 167.246094 102.375 168.964844 101.675781 170.710938 101.046875 C 172.457031 100.414062 174.226562 99.851562 176.015625 99.359375 C 177.808594 98.867188 179.613281 98.445312 181.4375 98.097656 C 183.261719 97.746094 185.09375 97.464844 186.941406 97.257812 C 188.785156 97.050781 190.636719 96.917969 192.492188 96.855469 L 201.550781 79.761719 L 200.871094 79.761719 C 198.40625 79.761719 195.941406 79.863281 193.484375 80.070312 C 191.027344 80.277344 188.582031 80.589844 186.148438 81 C 183.71875 81.414062 181.308594 81.925781 178.917969 82.542969 C 176.53125 83.15625 174.171875 83.871094 171.84375 84.683594 C 169.515625 85.496094 167.222656 86.40625 164.972656 87.414062 C 162.71875 88.417969 160.511719 89.515625 158.351562 90.707031 C 156.191406 91.898438 154.085938 93.175781 152.03125 94.546875 C 149.980469 95.914062 147.988281 97.363281 146.058594 98.898438 C 144.128906 100.433594 142.265625 102.046875 140.46875 103.738281 C 138.671875 105.429688 136.953125 107.195312 135.304688 109.03125 C 133.65625 110.867188 132.089844 112.769531 130.605469 114.734375 C 129.117188 116.703125 127.714844 118.730469 126.398438 120.816406 C 125.078125 122.902344 123.851562 125.039062 122.714844 127.226562 C 121.578125 129.414062 120.53125 131.648438 119.582031 133.925781 C 118.632812 136.199219 117.78125 138.511719 117.023438 140.859375 C 116.269531 143.207031 115.613281 145.585938 115.054688 147.988281 Z M 126.648438 147.988281 " fill-opacity="1" fill-rule="nonzero"/><g clip-path="url(#9d50f3573c)"><path fill="#39b54a" d="M 211.585938 77.753906 L 177.0625 143.105469 L 198.496094 137.671875 L 174.683594 177.753906 L 252.457031 113.066406 L 209.605469 123.785156 L 246.507812 77.753906 Z M 211.585938 77.753906 " fill-opacity="1" fill-rule="nonzero"/></g><g clip-path="url(#9311255e8d)"><path fill="#3d4d54" d="M 168.367188 181.71875 L 182.199219 149.578125 L 160.320312 157.773438 L 179.855469 120.792969 C 177.015625 121.042969 174.230469 121.558594 171.492188 122.335938 C 168.75 123.113281 166.109375 124.144531 163.566406 125.421875 C 161.023438 126.703125 158.621094 128.210938 156.363281 129.945312 C 154.105469 131.679688 152.03125 133.613281 150.140625 135.742188 L 132.25 155.925781 L 109.210938 155.925781 C 108.378906 155.925781 107.550781 155.964844 106.722656 156.046875 C 105.894531 156.128906 105.074219 156.25 104.257812 156.414062 C 103.441406 156.574219 102.636719 156.777344 101.839844 157.019531 C 101.042969 157.257812 100.261719 157.539062 99.492188 157.855469 C 98.726562 158.175781 97.972656 158.53125 97.238281 158.921875 C 96.507812 159.3125 95.792969 159.742188 95.101562 160.203125 C 94.410156 160.664062 93.742188 161.160156 93.101562 161.6875 C 92.457031 162.214844 91.839844 162.773438 91.253906 163.359375 C 90.664062 163.949219 90.105469 164.5625 89.578125 165.207031 C 89.050781 165.851562 88.554688 166.515625 88.09375 167.207031 C 87.632812 167.898438 87.203125 168.613281 86.8125 169.347656 C 86.421875 170.078125 86.066406 170.832031 85.746094 171.597656 C 85.429688 172.367188 85.148438 173.148438 84.90625 173.945312 C 84.664062 174.742188 84.464844 175.546875 84.300781 176.363281 C 84.140625 177.179688 84.015625 178 83.9375 178.828125 C 83.855469 179.65625 83.8125 180.484375 83.8125 181.316406 L 83.8125 181.71875 Z M 168.367188 181.71875 " fill-opacity="1" fill-rule="nonzero"/></g><path fill="#3d4d54" d="M 282.214844 120.613281 L 256.535156 120.613281 L 179.816406 181.71875 L 227.761719 181.71875 L 258.804688 152.355469 L 240.15625 152.355469 Z M 282.214844 120.613281 " fill-opacity="1" fill-rule="nonzero"/><g clip-path="url(#89552956d6)"><path fill="#3d4d54" d="M 83.8125 187.667969 L 83.8125 195.410156 C 83.8125 195.761719 83.847656 196.109375 83.917969 196.453125 C 83.984375 196.800781 84.085938 197.136719 84.222656 197.460938 C 84.355469 197.785156 84.519531 198.09375 84.714844 198.386719 C 84.914062 198.679688 85.132812 198.949219 85.382812 199.199219 C 85.632812 199.445312 85.902344 199.667969 86.195312 199.863281 C 86.488281 200.058594 86.796875 200.226562 87.121094 200.359375 C 87.445312 200.496094 87.78125 200.597656 88.125 200.664062 C 88.472656 200.734375 88.820312 200.769531 89.171875 200.769531 L 100.136719 200.769531 C 100.410156 202.289062 100.8125 203.773438 101.34375 205.222656 C 101.875 206.671875 102.53125 208.0625 103.304688 209.398438 C 104.078125 210.734375 104.964844 211.992188 105.957031 213.175781 C 106.953125 214.355469 108.042969 215.441406 109.226562 216.433594 C 110.410156 217.421875 111.671875 218.304688 113.011719 219.074219 C 114.347656 219.84375 115.742188 220.492188 117.195312 221.019531 C 118.644531 221.546875 120.132812 221.945312 121.652344 222.210938 C 123.171875 222.480469 124.703125 222.613281 126.25 222.613281 C 127.792969 222.613281 129.324219 222.480469 130.84375 222.210938 C 132.367188 221.945312 133.851562 221.546875 135.304688 221.019531 C 136.753906 220.492188 138.148438 219.84375 139.488281 219.074219 C 140.824219 218.304688 142.085938 217.421875 143.269531 216.433594 C 144.453125 215.441406 145.542969 214.355469 146.539062 213.175781 C 147.53125 211.992188 148.417969 210.734375 149.191406 209.398438 C 149.96875 208.0625 150.621094 206.671875 151.152344 205.222656 C 151.683594 203.773438 152.085938 202.289062 152.359375 200.769531 L 207.605469 200.769531 L 221.457031 187.667969 Z M 83.8125 187.667969 " fill-opacity="1" fill-rule="nonzero"/></g><g fill="#39b54a" fill-opacity="0.4"><g transform="translate(17.725877, 271.505797)"><g><path d="M 4.921875 -39.484375 L 29.875 -39.484375 L 29.875 -32.703125 L 11.703125 -32.703125 L 11.703125 -23.15625 L 25.375 -23.15625 L 25.375 -16.375 L 11.703125 -16.375 L 11.703125 -6.71875 L 29.875 -6.71875 L 29.875 0 L 4.921875 0 Z M 4.921875 -39.484375 "/></g></g></g><g fill="#39b54a" fill-opacity="0.4"><g transform="translate(50.299119, 271.505797)"><g><path d="M 38.15625 -7.140625 C 36.28125 -4.773438 33.984375 -2.9375 31.265625 -1.625 C 28.546875 -0.300781 25.664062 0.359375 22.625 0.359375 C 19.019531 0.359375 15.695312 -0.5625 12.65625 -2.40625 C 9.582031 -4.195312 7.164062 -6.65625 5.40625 -9.78125 C 3.601562 -12.863281 2.703125 -16.203125 2.703125 -19.796875 C 2.703125 -23.472656 3.601562 -26.832031 5.40625 -29.875 C 7.164062 -33 9.582031 -35.460938 12.65625 -37.265625 C 15.695312 -39.023438 19.019531 -39.90625 22.625 -39.90625 C 25.414062 -39.90625 28.113281 -39.34375 30.71875 -38.21875 C 33.28125 -37.0625 35.5 -35.421875 37.375 -33.296875 L 32.40625 -28.796875 C 31.125 -30.203125 29.640625 -31.285156 27.953125 -32.046875 C 26.234375 -32.804688 24.457031 -33.1875 22.625 -33.1875 C 20.21875 -33.1875 18.015625 -32.582031 16.015625 -31.375 C 13.972656 -30.175781 12.375 -28.554688 11.21875 -26.515625 C 10.019531 -24.441406 9.421875 -22.203125 9.421875 -19.796875 C 9.421875 -17.398438 10.019531 -15.179688 11.21875 -13.140625 C 12.375 -11.054688 13.972656 -9.414062 16.015625 -8.21875 C 18.054688 -6.976562 20.257812 -6.359375 22.625 -6.359375 C 24.625 -6.359375 26.503906 -6.800781 28.265625 -7.6875 C 30.023438 -8.5625 31.5625 -9.78125 32.875 -11.34375 Z M 38.15625 -7.140625 "/></g></g></g><g fill="#39b54a" fill-opacity="0.4"><g transform="translate(88.991162, 271.505797)"><g><path d="M 39.953125 -9.65625 C 38.160156 -6.539062 35.742188 -4.101562 32.703125 -2.34375 C 29.617188 -0.539062 26.28125 0.359375 22.6875 0.359375 C 19.125 0.359375 15.800781 -0.539062 12.71875 -2.34375 C 9.632812 -4.144531 7.195312 -6.601562 5.40625 -9.71875 C 3.601562 -12.800781 2.703125 -16.140625 2.703125 -19.734375 C 2.703125 -23.421875 3.601562 -26.78125 5.40625 -29.8125 C 7.195312 -32.9375 9.632812 -35.398438 12.71875 -37.203125 C 15.757812 -38.960938 19.082031 -39.84375 22.6875 -39.84375 C 26.320312 -39.84375 29.660156 -38.941406 32.703125 -37.140625 C 35.773438 -35.335938 38.210938 -32.894531 40.015625 -29.8125 C 41.773438 -26.695312 42.65625 -23.335938 42.65625 -19.734375 C 42.65625 -16.097656 41.753906 -12.738281 39.953125 -9.65625 Z M 34.140625 -26.453125 C 32.941406 -28.492188 31.320312 -30.113281 29.28125 -31.3125 C 27.238281 -32.519531 25.039062 -33.125 22.6875 -33.125 C 20.28125 -33.125 18.078125 -32.519531 16.078125 -31.3125 C 14.035156 -30.113281 12.4375 -28.492188 11.28125 -26.453125 C 10.082031 -24.378906 9.484375 -22.140625 9.484375 -19.734375 C 9.484375 -17.335938 10.082031 -15.117188 11.28125 -13.078125 C 12.4375 -10.992188 14.035156 -9.351562 16.078125 -8.15625 C 18.078125 -6.957031 20.28125 -6.359375 22.6875 -6.359375 C 25.082031 -6.359375 27.300781 -6.957031 29.34375 -8.15625 C 31.382812 -9.351562 32.984375 -10.992188 34.140625 -13.078125 C 35.296875 -15.117188 35.875 -17.335938 35.875 -19.734375 C 35.875 -22.140625 35.296875 -24.378906 34.140625 -26.453125 Z M 34.140625 -26.453125 "/></g></g></g><g fill="#39b54a" fill-opacity="0.4"><g transform="translate(132.182329, 271.505797)"><g><path d="M 38.15625 -7.140625 C 36.28125 -4.773438 33.984375 -2.9375 31.265625 -1.625 C 28.546875 -0.300781 25.664062 0.359375 22.625 0.359375 C 19.019531 0.359375 15.695312 -0.5625 12.65625 -2.40625 C 9.582031 -4.195312 7.164062 -6.65625 5.40625 -9.78125 C 3.601562 -12.863281 2.703125 -16.203125 2.703125 -19.796875 C 2.703125 -23.472656 3.601562 -26.832031 5.40625 -29.875 C 7.164062 -33 9.582031 -35.460938 12.65625 -37.265625 C 15.695312 -39.023438 19.019531 -39.90625 22.625 -39.90625 C 25.414062 -39.90625 28.113281 -39.34375 30.71875 -38.21875 C 33.28125 -37.0625 35.5 -35.421875 37.375 -33.296875 L 32.40625 -28.796875 C 31.125 -30.203125 29.640625 -31.285156 27.953125 -32.046875 C 26.234375 -32.804688 24.457031 -33.1875 22.625 -33.1875 C 20.21875 -33.1875 18.015625 -32.582031 16.015625 -31.375 C 13.972656 -30.175781 12.375 -28.554688 11.21875 -26.515625 C 10.019531 -24.441406 9.421875 -22.203125 9.421875 -19.796875 C 9.421875 -17.398438 10.019531 -15.179688 11.21875 -13.140625 C 12.375 -11.054688 13.972656 -9.414062 16.015625 -8.21875 C 18.054688 -6.976562 20.257812 -6.359375 22.625 -6.359375 C 24.625 -6.359375 26.503906 -6.800781 28.265625 -7.6875 C 30.023438 -8.5625 31.5625 -9.78125 32.875 -11.34375 Z M 38.15625 -7.140625 "/></g></g></g><g fill="#39b54a" fill-opacity="0.4"><g transform="translate(170.874365, 271.505797)"><g><path d="M 11.703125 -16.375 L 11.703125 0 L 4.984375 0 L 4.984375 -39.484375 L 11.703125 -39.484375 L 11.703125 -23.15625 L 28.203125 -23.15625 L 28.203125 -39.484375 L 34.921875 -39.484375 L 34.984375 0 L 28.203125 0 L 28.203125 -16.375 Z M 11.703125 -16.375 "/></g></g></g><g fill="#39b54a" fill-opacity="0.4"><g transform="translate(208.666576, 271.505797)"><g><path d="M 28.625 -5.40625 L 12.65625 -5.40625 L 10.140625 0 L 2.703125 0 L 21 -39.484375 L 38.40625 0 L 31.015625 0 Z M 25.625 -12.1875 L 20.8125 -23.09375 L 15.78125 -12.1875 Z M 25.625 -12.1875 "/></g></g></g><g fill="#39b54a" fill-opacity="0.4"><g transform="translate(247.598573, 271.505797)"><g><path d="M 24.953125 0 L 11.703125 -17.40625 L 11.703125 0 L 4.984375 0 L 4.921875 -39.484375 L 19.375 -39.484375 C 21.300781 -39.484375 23.125 -39.179688 24.84375 -38.578125 C 26.519531 -37.941406 28 -37.039062 29.28125 -35.875 C 30.5625 -34.757812 31.539062 -33.484375 32.21875 -32.046875 C 32.894531 -30.554688 33.234375 -29.015625 33.234375 -27.421875 C 33.234375 -25.054688 32.535156 -22.914062 31.140625 -21 C 29.703125 -19.082031 27.941406 -17.742188 25.859375 -16.984375 C 25.140625 -16.703125 24.320312 -16.460938 23.40625 -16.265625 C 22.4375 -16.054688 21.734375 -15.953125 21.296875 -15.953125 L 33.296875 0 Z M 11.703125 -32.703125 L 11.703125 -22.078125 L 17.578125 -22.078125 C 20.015625 -22.078125 21.894531 -22.398438 23.21875 -23.046875 C 24.132812 -23.398438 24.914062 -24 25.5625 -24.84375 C 26.15625 -25.644531 26.453125 -26.503906 26.453125 -27.421875 C 26.453125 -28.816406 25.816406 -30.054688 24.546875 -31.140625 C 23.265625 -32.179688 21.539062 -32.703125 19.375 -32.703125 Z M 11.703125 -32.703125 "/></g></g></g><g fill="#39b54a" fill-opacity="0.4"><g transform="translate(282.331389, 271.505797)"><g><path d="M 37.375 0 L 22.5625 0 C 18.957031 0 15.65625 -0.898438 12.65625 -2.703125 C 9.613281 -4.503906 7.210938 -6.941406 5.453125 -10.015625 C 3.660156 -13.054688 2.765625 -16.359375 2.765625 -19.921875 C 2.765625 -23.554688 3.660156 -26.894531 5.453125 -29.9375 C 7.253906 -33.019531 9.675781 -35.460938 12.71875 -37.265625 C 15.71875 -39.023438 19 -39.90625 22.5625 -39.90625 C 25.320312 -39.90625 28 -39.34375 30.59375 -38.21875 C 33.15625 -37.0625 35.335938 -35.460938 37.140625 -33.421875 L 32.15625 -28.921875 C 30.914062 -30.273438 29.457031 -31.316406 27.78125 -32.046875 C 26.101562 -32.765625 24.363281 -33.125 22.5625 -33.125 C 20.195312 -33.125 18.015625 -32.539062 16.015625 -31.375 C 13.972656 -30.175781 12.375 -28.578125 11.21875 -26.578125 C 10.0625 -24.535156 9.484375 -22.316406 9.484375 -19.921875 C 9.484375 -17.515625 10.082031 -15.3125 11.28125 -13.3125 C 12.4375 -11.28125 14.015625 -9.679688 16.015625 -8.515625 C 18.015625 -7.316406 20.195312 -6.71875 22.5625 -6.71875 L 30.65625 -6.71875 L 30.65625 -15.0625 L 21.234375 -15.0625 L 21.234375 -21.78125 L 37.375 -21.78125 Z M 37.375 0 "/></g></g></g><g fill="#39b54a" fill-opacity="0.4"><g transform="translate(322.523152, 271.505797)"><g><path d="M 4.921875 -39.484375 L 29.875 -39.484375 L 29.875 -32.703125 L 11.703125 -32.703125 L 11.703125 -23.15625 L 25.375 -23.15625 L 25.375 -16.375 L 11.703125 -16.375 L 11.703125 -6.71875 L 29.875 -6.71875 L 29.875 0 L 4.921875 0 Z M 4.921875 -39.484375 "/></g></g></g><g fill="#39b54a" fill-opacity="1"><g transform="translate(17.725877, 271.505797)"><g><path d="M 4.921875 -39.484375 L 29.875 -39.484375 L 29.875 -32.703125 L 11.703125 -32.703125 L 11.703125 -23.15625 L 25.375 -23.15625 L 25.375 -16.375 L 11.703125 -16.375 L 11.703125 -6.71875 L 29.875 -6.71875 L 29.875 0 L 4.921875 0 Z M 4.921875 -39.484375 "/></g></g></g><g fill="#39b54a" fill-opacity="1"><g transform="translate(50.299119, 271.505797)"><g><path d="M 38.15625 -7.140625 C 36.28125 -4.773438 33.984375 -2.9375 31.265625 -1.625 C 28.546875 -0.300781 25.664062 0.359375 22.625 0.359375 C 19.019531 0.359375 15.695312 -0.5625 12.65625 -2.40625 C 9.582031 -4.195312 7.164062 -6.65625 5.40625 -9.78125 C 3.601562 -12.863281 2.703125 -16.203125 2.703125 -19.796875 C 2.703125 -23.472656 3.601562 -26.832031 5.40625 -29.875 C 7.164062 -33 9.582031 -35.460938 12.65625 -37.265625 C 15.695312 -39.023438 19.019531 -39.90625 22.625 -39.90625 C 25.414062 -39.90625 28.113281 -39.34375 30.71875 -38.21875 C 33.28125 -37.0625 35.5 -35.421875 37.375 -33.296875 L 32.40625 -28.796875 C 31.125 -30.203125 29.640625 -31.285156 27.953125 -32.046875 C 26.234375 -32.804688 24.457031 -33.1875 22.625 -33.1875 C 20.21875 -33.1875 18.015625 -32.582031 16.015625 -31.375 C 13.972656 -30.175781 12.375 -28.554688 11.21875 -26.515625 C 10.019531 -24.441406 9.421875 -22.203125 9.421875 -19.796875 C 9.421875 -17.398438 10.019531 -15.179688 11.21875 -13.140625 C 12.375 -11.054688 13.972656 -9.414062 16.015625 -8.21875 C 18.054688 -6.976562 20.257812 -6.359375 22.625 -6.359375 C 24.625 -6.359375 26.503906 -6.800781 28.265625 -7.6875 C 30.023438 -8.5625 31.5625 -9.78125 32.875 -11.34375 Z M 38.15625 -7.140625 "/></g></g></g><g fill="#39b54a" fill-opacity="1"><g transform="translate(88.991162, 271.505797)"><g><path d="M 39.953125 -9.65625 C 38.160156 -6.539062 35.742188 -4.101562 32.703125 -2.34375 C 29.617188 -0.539062 26.28125 0.359375 22.6875 0.359375 C 19.125 0.359375 15.800781 -0.539062 12.71875 -2.34375 C 9.632812 -4.144531 7.195312 -6.601562 5.40625 -9.71875 C 3.601562 -12.800781 2.703125 -16.140625 2.703125 -19.734375 C 2.703125 -23.421875 3.601562 -26.78125 5.40625 -29.8125 C 7.195312 -32.9375 9.632812 -35.398438 12.71875 -37.203125 C 15.757812 -38.960938 19.082031 -39.84375 22.6875 -39.84375 C 26.320312 -39.84375 29.660156 -38.941406 32.703125 -37.140625 C 35.773438 -35.335938 38.210938 -32.894531 40.015625 -29.8125 C 41.773438 -26.695312 42.65625 -23.335938 42.65625 -19.734375 C 42.65625 -16.097656 41.753906 -12.738281 39.953125 -9.65625 Z M 34.140625 -26.453125 C 32.941406 -28.492188 31.320312 -30.113281 29.28125 -31.3125 C 27.238281 -32.519531 25.039062 -33.125 22.6875 -33.125 C 20.28125 -33.125 18.078125 -32.519531 16.078125 -31.3125 C 14.035156 -30.113281 12.4375 -28.492188 11.28125 -26.453125 C 10.082031 -24.378906 9.484375 -22.140625 9.484375 -19.734375 C 9.484375 -17.335938 10.082031 -15.117188 11.28125 -13.078125 C 12.4375 -10.992188 14.035156 -9.351562 16.078125 -8.15625 C 18.078125 -6.957031 20.28125 -6.359375 22.6875 -6.359375 C 25.082031 -6.359375 27.300781 -6.957031 29.34375 -8.15625 C 31.382812 -9.351562 32.984375 -10.992188 34.140625 -13.078125 C 35.296875 -15.117188 35.875 -17.335938 35.875 -19.734375 C 35.875 -22.140625 35.296875 -24.378906 34.140625 -26.453125 Z M 34.140625 -26.453125 "/></g></g></g><g fill="#39b54a" fill-opacity="1"><g transform="translate(132.182329, 271.505797)"><g><path d="M 38.15625 -7.140625 C 36.28125 -4.773438 33.984375 -2.9375 31.265625 -1.625 C 28.546875 -0.300781 25.664062 0.359375 22.625 0.359375 C 19.019531 0.359375 15.695312 -0.5625 12.65625 -2.40625 C 9.582031 -4.195312 7.164062 -6.65625 5.40625 -9.78125 C 3.601562 -12.863281 2.703125 -16.203125 2.703125 -19.796875 C 2.703125 -23.472656 3.601562 -26.832031 5.40625 -29.875 C 7.164062 -33 9.582031 -35.460938 12.65625 -37.265625 C 15.695312 -39.023438 19.019531 -39.90625 22.625 -39.90625 C 25.414062 -39.90625 28.113281 -39.34375 30.71875 -38.21875 C 33.28125 -37.0625 35.5 -35.421875 37.375 -33.296875 L 32.40625 -28.796875 C 31.125 -30.203125 29.640625 -31.285156 27.953125 -32.046875 C 26.234375 -32.804688 24.457031 -33.1875 22.625 -33.1875 C 20.21875 -33.1875 18.015625 -32.582031 16.015625 -31.375 C 13.972656 -30.175781 12.375 -28.554688 11.21875 -26.515625 C 10.019531 -24.441406 9.421875 -22.203125 9.421875 -19.796875 C 9.421875 -17.398438 10.019531 -15.179688 11.21875 -13.140625 C 12.375 -11.054688 13.972656 -9.414062 16.015625 -8.21875 C 18.054688 -6.976562 20.257812 -6.359375 22.625 -6.359375 C 24.625 -6.359375 26.503906 -6.800781 28.265625 -7.6875 C 30.023438 -8.5625 31.5625 -9.78125 32.875 -11.34375 Z M 38.15625 -7.140625 "/></g></g></g><g fill="#39b54a" fill-opacity="1"><g transform="translate(170.874365, 271.505797)"><g><path d="M 11.703125 -16.375 L 11.703125 0 L 4.984375 0 L 4.984375 -39.484375 L 11.703125 -39.484375 L 11.703125 -23.15625 L 28.203125 -23.15625 L 28.203125 -39.484375 L 34.921875 -39.484375 L 34.984375 0 L 28.203125 0 L 28.203125 -16.375 Z M 11.703125 -16.375 "/></g></g></g><g fill="#39b54a" fill-opacity="1"><g transform="translate(208.666576, 271.505797)"><g><path d="M 28.625 -5.40625 L 12.65625 -5.40625 L 10.140625 0 L 2.703125 0 L 21 -39.484375 L 38.40625 0 L 31.015625 0 Z M 25.625 -12.1875 L 20.8125 -23.09375 L 15.78125 -12.1875 Z M 25.625 -12.1875 "/></g></g></g><g fill="#39b54a" fill-opacity="1"><g transform="translate(247.598573, 271.505797)"><g><path d="M 24.953125 0 L 11.703125 -17.40625 L 11.703125 0 L 4.984375 0 L 4.921875 -39.484375 L 19.375 -39.484375 C 21.300781 -39.484375 23.125 -39.179688 24.84375 -38.578125 C 26.519531 -37.941406 28 -37.039062 29.28125 -35.875 C 30.5625 -34.757812 31.539062 -33.484375 32.21875 -32.046875 C 32.894531 -30.554688 33.234375 -29.015625 33.234375 -27.421875 C 33.234375 -25.054688 32.535156 -22.914062 31.140625 -21 C 29.703125 -19.082031 27.941406 -17.742188 25.859375 -16.984375 C 25.140625 -16.703125 24.320312 -16.460938 23.40625 -16.265625 C 22.4375 -16.054688 21.734375 -15.953125 21.296875 -15.953125 L 33.296875 0 Z M 11.703125 -32.703125 L 11.703125 -22.078125 L 17.578125 -22.078125 C 20.015625 -22.078125 21.894531 -22.398438 23.21875 -23.046875 C 24.132812 -23.398438 24.914062 -24 25.5625 -24.84375 C 26.15625 -25.644531 26.453125 -26.503906 26.453125 -27.421875 C 26.453125 -28.816406 25.816406 -30.054688 24.546875 -31.140625 C 23.265625 -32.179688 21.539062 -32.703125 19.375 -32.703125 Z M 11.703125 -32.703125 "/></g></g></g><g fill="#39b54a" fill-opacity="1"><g transform="translate(282.331389, 271.505797)"><g><path d="M 37.375 0 L 22.5625 0 C 18.957031 0 15.65625 -0.898438 12.65625 -2.703125 C 9.613281 -4.503906 7.210938 -6.941406 5.453125 -10.015625 C 3.660156 -13.054688 2.765625 -16.359375 2.765625 -19.921875 C 2.765625 -23.554688 3.660156 -26.894531 5.453125 -29.9375 C 7.253906 -33.019531 9.675781 -35.460938 12.71875 -37.265625 C 15.71875 -39.023438 19 -39.90625 22.5625 -39.90625 C 25.320312 -39.90625 28 -39.34375 30.59375 -38.21875 C 33.15625 -37.0625 35.335938 -35.460938 37.140625 -33.421875 L 32.15625 -28.921875 C 30.914062 -30.273438 29.457031 -31.316406 27.78125 -32.046875 C 26.101562 -32.765625 24.363281 -33.125 22.5625 -33.125 C 20.195312 -33.125 18.015625 -32.539062 16.015625 -31.375 C 13.972656 -30.175781 12.375 -28.578125 11.21875 -26.578125 C 10.0625 -24.535156 9.484375 -22.316406 9.484375 -19.921875 C 9.484375 -17.515625 10.082031 -15.3125 11.28125 -13.3125 C 12.4375 -11.28125 14.015625 -9.679688 16.015625 -8.515625 C 18.015625 -7.316406 20.195312 -6.71875 22.5625 -6.71875 L 30.65625 -6.71875 L 30.65625 -15.0625 L 21.234375 -15.0625 L 21.234375 -21.78125 L 37.375 -21.78125 Z M 37.375 0 "/></g></g></g><g fill="#39b54a" fill-opacity="1"><g transform="translate(322.523152, 271.505797)"><g><path d="M 4.921875 -39.484375 L 29.875 -39.484375 L 29.875 -32.703125 L 11.703125 -32.703125 L 11.703125 -23.15625 L 25.375 -23.15625 L 25.375 -16.375 L 11.703125 -16.375 L 11.703125 -6.71875 L 29.875 -6.71875 L 29.875 0 L 4.921875 0 Z M 4.921875 -39.484375 "/></g></g></g><g fill="#322f30" fill-opacity="1"><g transform="translate(55.535589, 294.225919)"><g><path d="M 9.546875 -1.78125 C 9.066406 -1.195312 8.488281 -0.738281 7.8125 -0.40625 C 7.132812 -0.0703125 6.414062 0.09375 5.65625 0.09375 C 4.757812 0.09375 3.929688 -0.132812 3.171875 -0.59375 C 2.398438 -1.050781 1.789062 -1.664062 1.34375 -2.4375 C 0.894531 -3.207031 0.671875 -4.046875 0.671875 -4.953125 C 0.671875 -5.867188 0.894531 -6.707031 1.34375 -7.46875 C 1.789062 -8.25 2.398438 -8.863281 3.171875 -9.3125 C 3.929688 -9.75 4.757812 -9.96875 5.65625 -9.96875 C 6.351562 -9.96875 7.03125 -9.832031 7.6875 -9.5625 C 8.320312 -9.269531 8.875 -8.859375 9.34375 -8.328125 L 8.09375 -7.203125 C 7.78125 -7.546875 7.410156 -7.816406 6.984375 -8.015625 C 6.554688 -8.203125 6.113281 -8.296875 5.65625 -8.296875 C 5.050781 -8.296875 4.5 -8.144531 4 -7.84375 C 3.488281 -7.539062 3.09375 -7.132812 2.8125 -6.625 C 2.507812 -6.101562 2.359375 -5.546875 2.359375 -4.953125 C 2.359375 -4.347656 2.507812 -3.789062 2.8125 -3.28125 C 3.09375 -2.757812 3.488281 -2.351562 4 -2.0625 C 4.507812 -1.75 5.0625 -1.59375 5.65625 -1.59375 C 6.15625 -1.59375 6.625 -1.703125 7.0625 -1.921875 C 7.5 -2.140625 7.882812 -2.441406 8.21875 -2.828125 Z M 9.546875 -1.78125 "/></g></g></g><g fill="#322f30" fill-opacity="1"><g transform="translate(69.185573, 294.225919)"><g><path d="M 7.15625 -1.34375 L 3.171875 -1.34375 L 2.53125 0 L 0.671875 0 L 5.25 -9.875 L 9.59375 0 L 7.75 0 Z M 6.40625 -3.046875 L 5.203125 -5.78125 L 3.9375 -3.046875 Z M 6.40625 -3.046875 "/></g></g></g><g fill="#322f30" fill-opacity="1"><g transform="translate(82.895558, 294.225919)"><g><path d="M 6.234375 0 L 2.921875 -4.34375 L 2.921875 0 L 1.25 0 L 1.234375 -9.875 L 4.84375 -9.875 C 5.320312 -9.875 5.773438 -9.796875 6.203125 -9.640625 C 6.628906 -9.484375 7 -9.257812 7.3125 -8.96875 C 7.632812 -8.6875 7.882812 -8.367188 8.0625 -8.015625 C 8.226562 -7.640625 8.3125 -7.253906 8.3125 -6.859375 C 8.3125 -6.265625 8.132812 -5.726562 7.78125 -5.25 C 7.425781 -4.769531 6.988281 -4.4375 6.46875 -4.25 C 6.28125 -4.175781 6.070312 -4.113281 5.84375 -4.0625 C 5.601562 -4.007812 5.429688 -3.984375 5.328125 -3.984375 L 8.328125 0 Z M 2.921875 -8.171875 L 2.921875 -5.515625 L 4.390625 -5.515625 C 5.003906 -5.515625 5.476562 -5.597656 5.8125 -5.765625 C 6.039062 -5.847656 6.234375 -5.992188 6.390625 -6.203125 C 6.535156 -6.410156 6.609375 -6.628906 6.609375 -6.859375 C 6.609375 -7.203125 6.453125 -7.507812 6.140625 -7.78125 C 5.816406 -8.039062 5.382812 -8.171875 4.84375 -8.171875 Z M 2.921875 -8.171875 "/></g></g></g><g fill="#322f30" fill-opacity="1"><g transform="translate(95.555547, 294.225919)"><g><path d="M 6.234375 0 L 2.921875 -4.34375 L 2.921875 0 L 1.25 0 L 1.234375 -9.875 L 4.84375 -9.875 C 5.320312 -9.875 5.773438 -9.796875 6.203125 -9.640625 C 6.628906 -9.484375 7 -9.257812 7.3125 -8.96875 C 7.632812 -8.6875 7.882812 -8.367188 8.0625 -8.015625 C 8.226562 -7.640625 8.3125 -7.253906 8.3125 -6.859375 C 8.3125 -6.265625 8.132812 -5.726562 7.78125 -5.25 C 7.425781 -4.769531 6.988281 -4.4375 6.46875 -4.25 C 6.28125 -4.175781 6.070312 -4.113281 5.84375 -4.0625 C 5.601562 -4.007812 5.429688 -3.984375 5.328125 -3.984375 L 8.328125 0 Z M 2.921875 -8.171875 L 2.921875 -5.515625 L 4.390625 -5.515625 C 5.003906 -5.515625 5.476562 -5.597656 5.8125 -5.765625 C 6.039062 -5.847656 6.234375 -5.992188 6.390625 -6.203125 C 6.535156 -6.410156 6.609375 -6.628906 6.609375 -6.859375 C 6.609375 -7.203125 6.453125 -7.507812 6.140625 -7.78125 C 5.816406 -8.039062 5.382812 -8.171875 4.84375 -8.171875 Z M 2.921875 -8.171875 "/></g></g></g><g fill="#322f30" fill-opacity="1"><g transform="translate(108.215539, 294.225919)"><g><path d="M 1.234375 -9.875 L 7.46875 -9.875 L 7.46875 -8.171875 L 2.921875 -8.171875 L 2.921875 -5.796875 L 6.34375 -5.796875 L 6.34375 -4.09375 L 2.921875 -4.09375 L 2.921875 -1.6875 L 7.46875 -1.6875 L 7.46875 0 L 1.234375 0 Z M 1.234375 -9.875 "/></g></g></g><g fill="#322f30" fill-opacity="1"><g transform="translate(120.335529, 294.225919)"><g><path d="M 9.34375 0 L 5.640625 0 C 4.742188 0 3.921875 -0.222656 3.171875 -0.671875 C 2.410156 -1.117188 1.804688 -1.726562 1.359375 -2.5 C 0.910156 -3.257812 0.6875 -4.085938 0.6875 -4.984375 C 0.6875 -5.890625 0.910156 -6.722656 1.359375 -7.484375 C 1.816406 -8.253906 2.425781 -8.863281 3.1875 -9.3125 C 3.9375 -9.75 4.753906 -9.96875 5.640625 -9.96875 C 6.328125 -9.96875 7 -9.832031 7.65625 -9.5625 C 8.289062 -9.269531 8.832031 -8.867188 9.28125 -8.359375 L 8.046875 -7.234375 C 7.734375 -7.566406 7.363281 -7.828125 6.9375 -8.015625 C 6.519531 -8.191406 6.085938 -8.28125 5.640625 -8.28125 C 5.046875 -8.28125 4.5 -8.132812 4 -7.84375 C 3.488281 -7.539062 3.09375 -7.140625 2.8125 -6.640625 C 2.519531 -6.128906 2.375 -5.578125 2.375 -4.984375 C 2.375 -4.378906 2.519531 -3.828125 2.8125 -3.328125 C 3.101562 -2.816406 3.5 -2.414062 4 -2.125 C 4.5 -1.832031 5.046875 -1.6875 5.640625 -1.6875 L 7.671875 -1.6875 L 7.671875 -3.765625 L 5.3125 -3.765625 L 5.3125 -5.4375 L 9.34375 -5.4375 Z M 9.34375 0 "/></g></g></g><g fill="#322f30" fill-opacity="1"><g transform="translate(134.360515, 294.225919)"><g><path d="M 7.15625 -1.34375 L 3.171875 -1.34375 L 2.53125 0 L 0.671875 0 L 5.25 -9.875 L 9.59375 0 L 7.75 0 Z M 6.40625 -3.046875 L 5.203125 -5.78125 L 3.9375 -3.046875 Z M 6.40625 -3.046875 "/></g></g></g><g fill="#322f30" fill-opacity="1"><g transform="translate(148.070502, 294.225919)"><g><path d="M 9.703125 -4.75 L 6.328125 -0.046875 L 2.921875 -4.765625 L 2.921875 0 L 1.25 0 L 1.25 -10.015625 L 6.328125 -2.9375 L 11.390625 -10.015625 L 11.390625 0 L 9.703125 0 Z M 9.703125 -4.75 "/></g></g></g><g fill="#322f30" fill-opacity="1"><g transform="translate(164.135482, 294.225919)"><g><path d="M 1.234375 -9.875 L 7.46875 -9.875 L 7.46875 -8.171875 L 2.921875 -8.171875 L 2.921875 -5.796875 L 6.34375 -5.796875 L 6.34375 -4.09375 L 2.921875 -4.09375 L 2.921875 -1.6875 L 7.46875 -1.6875 L 7.46875 0 L 1.234375 0 Z M 1.234375 -9.875 "/></g></g></g><g fill="#322f30" fill-opacity="1"><g transform="translate(176.255472, 294.225919)"><g><path d="M 2.921875 0 L 1.25 0 L 1.25 -10.015625 L 7.328125 -3.9375 L 7.328125 -9.875 L 9.015625 -9.875 L 9.015625 0.21875 L 2.921875 -5.859375 Z M 2.921875 0 "/></g></g></g><g fill="#322f30" fill-opacity="1"><g transform="translate(189.935464, 294.225919)"><g><path d="M 0.734375 -9.875 L 8.34375 -9.875 L 8.34375 -8.171875 L 5.375 -8.171875 L 5.375 0 L 3.6875 0 L 3.6875 -8.171875 L 0.734375 -8.171875 Z M 0.734375 -9.875 "/></g></g></g><g fill="#322f30" fill-opacity="1"><g transform="translate(202.445458, 294.225919)"><g><path d="M 9.984375 -2.421875 C 9.535156 -1.640625 8.929688 -1.023438 8.171875 -0.578125 C 7.398438 -0.128906 6.566406 0.09375 5.671875 0.09375 C 4.773438 0.09375 3.945312 -0.128906 3.1875 -0.578125 C 2.414062 -1.035156 1.800781 -1.65625 1.34375 -2.4375 C 0.894531 -3.195312 0.671875 -4.03125 0.671875 -4.9375 C 0.671875 -5.851562 0.894531 -6.691406 1.34375 -7.453125 C 1.800781 -8.234375 2.414062 -8.847656 3.1875 -9.296875 C 3.9375 -9.734375 4.765625 -9.953125 5.671875 -9.953125 C 6.578125 -9.953125 7.410156 -9.726562 8.171875 -9.28125 C 8.941406 -8.832031 9.550781 -8.222656 10 -7.453125 C 10.445312 -6.671875 10.671875 -5.832031 10.671875 -4.9375 C 10.671875 -4.019531 10.441406 -3.179688 9.984375 -2.421875 Z M 8.53125 -6.609375 C 8.226562 -7.117188 7.820312 -7.523438 7.3125 -7.828125 C 6.8125 -8.128906 6.265625 -8.28125 5.671875 -8.28125 C 5.066406 -8.28125 4.515625 -8.128906 4.015625 -7.828125 C 3.503906 -7.523438 3.101562 -7.117188 2.8125 -6.609375 C 2.519531 -6.085938 2.375 -5.53125 2.375 -4.9375 C 2.375 -4.332031 2.519531 -3.773438 2.8125 -3.265625 C 3.101562 -2.742188 3.503906 -2.335938 4.015625 -2.046875 C 4.515625 -1.742188 5.066406 -1.59375 5.671875 -1.59375 C 6.265625 -1.59375 6.816406 -1.742188 7.328125 -2.046875 C 7.835938 -2.335938 8.238281 -2.742188 8.53125 -3.265625 C 8.820312 -3.773438 8.96875 -4.332031 8.96875 -4.9375 C 8.96875 -5.53125 8.820312 -6.085938 8.53125 -6.609375 Z M 8.53125 -6.609375 "/></g></g></g><g fill="#322f30" fill-opacity="1"><g transform="translate(217.220443, 294.225919)"><g/></g></g><g fill="#322f30" fill-opacity="1"><g transform="translate(225.155444, 294.225919)"><g><path d="M 1.234375 -9.875 L 7.46875 -9.875 L 7.46875 -8.171875 L 2.921875 -8.171875 L 2.921875 -5.796875 L 6.34375 -5.796875 L 6.34375 -4.09375 L 2.921875 -4.09375 L 2.921875 -1.6875 L 7.46875 -1.6875 L 7.46875 0 L 1.234375 0 Z M 1.234375 -9.875 "/></g></g></g><g fill="#322f30" fill-opacity="1"><g transform="translate(237.275435, 294.225919)"><g><path d="M 1.234375 -9.875 L 2.921875 -9.875 L 2.921875 -1.6875 L 7.46875 -1.6875 L 7.46875 0 L 1.234375 0 Z M 1.234375 -9.875 "/></g></g></g><g fill="#322f30" fill-opacity="1"><g transform="translate(249.260431, 294.225919)"><g><path d="M 1.234375 -9.875 L 7.46875 -9.875 L 7.46875 -8.171875 L 2.921875 -8.171875 L 2.921875 -5.796875 L 6.34375 -5.796875 L 6.34375 -4.09375 L 2.921875 -4.09375 L 2.921875 -1.6875 L 7.46875 -1.6875 L 7.46875 0 L 1.234375 0 Z M 6.890625 -12.484375 L 5.03125 -10.765625 L 3.671875 -10.765625 L 5.0625 -12.484375 Z M 6.890625 -12.484375 "/></g></g></g><g fill="#322f30" fill-opacity="1"><g transform="translate(261.38041, 294.225919)"><g><path d="M 0.734375 -9.875 L 8.34375 -9.875 L 8.34375 -8.171875 L 5.375 -8.171875 L 5.375 0 L 3.6875 0 L 3.6875 -8.171875 L 0.734375 -8.171875 Z M 0.734375 -9.875 "/></g></g></g><g fill="#322f30" fill-opacity="1"><g transform="translate(273.890403, 294.225919)"><g><path d="M 6.234375 0 L 2.921875 -4.34375 L 2.921875 0 L 1.25 0 L 1.234375 -9.875 L 4.84375 -9.875 C 5.320312 -9.875 5.773438 -9.796875 6.203125 -9.640625 C 6.628906 -9.484375 7 -9.257812 7.3125 -8.96875 C 7.632812 -8.6875 7.882812 -8.367188 8.0625 -8.015625 C 8.226562 -7.640625 8.3125 -7.253906 8.3125 -6.859375 C 8.3125 -6.265625 8.132812 -5.726562 7.78125 -5.25 C 7.425781 -4.769531 6.988281 -4.4375 6.46875 -4.25 C 6.28125 -4.175781 6.070312 -4.113281 5.84375 -4.0625 C 5.601562 -4.007812 5.429688 -3.984375 5.328125 -3.984375 L 8.328125 0 Z M 2.921875 -8.171875 L 2.921875 -5.515625 L 4.390625 -5.515625 C 5.003906 -5.515625 5.476562 -5.597656 5.8125 -5.765625 C 6.039062 -5.847656 6.234375 -5.992188 6.390625 -6.203125 C 6.535156 -6.410156 6.609375 -6.628906 6.609375 -6.859375 C 6.609375 -7.203125 6.453125 -7.507812 6.140625 -7.78125 C 5.816406 -8.039062 5.382812 -8.171875 4.84375 -8.171875 Z M 2.921875 -8.171875 "/></g></g></g><g fill="#322f30" fill-opacity="1"><g transform="translate(286.550383, 294.225919)"><g><path d="M 1.390625 -9.875 L 3.09375 -9.875 L 3.09375 0 L 1.390625 0 Z M 1.390625 -9.875 "/></g></g></g><g fill="#322f30" fill-opacity="1"><g transform="translate(294.470381, 294.225919)"><g><path d="M 9.546875 -1.78125 C 9.066406 -1.195312 8.488281 -0.738281 7.8125 -0.40625 C 7.132812 -0.0703125 6.414062 0.09375 5.65625 0.09375 C 4.757812 0.09375 3.929688 -0.132812 3.171875 -0.59375 C 2.398438 -1.050781 1.789062 -1.664062 1.34375 -2.4375 C 0.894531 -3.207031 0.671875 -4.046875 0.671875 -4.953125 C 0.671875 -5.867188 0.894531 -6.707031 1.34375 -7.46875 C 1.789062 -8.25 2.398438 -8.863281 3.171875 -9.3125 C 3.929688 -9.75 4.757812 -9.96875 5.65625 -9.96875 C 6.351562 -9.96875 7.03125 -9.832031 7.6875 -9.5625 C 8.320312 -9.269531 8.875 -8.859375 9.34375 -8.328125 L 8.09375 -7.203125 C 7.78125 -7.546875 7.410156 -7.816406 6.984375 -8.015625 C 6.554688 -8.203125 6.113281 -8.296875 5.65625 -8.296875 C 5.050781 -8.296875 4.5 -8.144531 4 -7.84375 C 3.488281 -7.539062 3.09375 -7.132812 2.8125 -6.625 C 2.507812 -6.101562 2.359375 -5.546875 2.359375 -4.953125 C 2.359375 -4.347656 2.507812 -3.789062 2.8125 -3.28125 C 3.09375 -2.757812 3.488281 -2.351562 4 -2.0625 C 4.507812 -1.75 5.0625 -1.59375 5.65625 -1.59375 C 6.15625 -1.59375 6.625 -1.703125 7.0625 -1.921875 C 7.5 -2.140625 7.882812 -2.441406 8.21875 -2.828125 Z M 9.546875 -1.78125 "/></g></g></g><g fill="#322f30" fill-opacity="1"><g transform="translate(308.120366, 294.225919)"><g><path d="M 9.984375 -2.421875 C 9.535156 -1.640625 8.929688 -1.023438 8.171875 -0.578125 C 7.398438 -0.128906 6.566406 0.09375 5.671875 0.09375 C 4.773438 0.09375 3.945312 -0.128906 3.1875 -0.578125 C 2.414062 -1.035156 1.800781 -1.65625 1.34375 -2.4375 C 0.894531 -3.195312 0.671875 -4.03125 0.671875 -4.9375 C 0.671875 -5.851562 0.894531 -6.691406 1.34375 -7.453125 C 1.800781 -8.234375 2.414062 -8.847656 3.1875 -9.296875 C 3.9375 -9.734375 4.765625 -9.953125 5.671875 -9.953125 C 6.578125 -9.953125 7.410156 -9.726562 8.171875 -9.28125 C 8.941406 -8.832031 9.550781 -8.222656 10 -7.453125 C 10.445312 -6.671875 10.671875 -5.832031 10.671875 -4.9375 C 10.671875 -4.019531 10.441406 -3.179688 9.984375 -2.421875 Z M 8.53125 -6.609375 C 8.226562 -7.117188 7.820312 -7.523438 7.3125 -7.828125 C 6.8125 -8.128906 6.265625 -8.28125 5.671875 -8.28125 C 5.066406 -8.28125 4.515625 -8.128906 4.015625 -7.828125 C 3.503906 -7.523438 3.101562 -7.117188 2.8125 -6.609375 C 2.519531 -6.085938 2.375 -5.53125 2.375 -4.9375 C 2.375 -4.332031 2.519531 -3.773438 2.8125 -3.265625 C 3.101562 -2.742188 3.503906 -2.335938 4.015625 -2.046875 C 4.515625 -1.742188 5.066406 -1.59375 5.671875 -1.59375 C 6.265625 -1.59375 6.816406 -1.742188 7.328125 -2.046875 C 7.835938 -2.335938 8.238281 -2.742188 8.53125 -3.265625 C 8.820312 -3.773438 8.96875 -4.332031 8.96875 -4.9375 C 8.96875 -5.53125 8.820312 -6.085938 8.53125 -6.609375 Z M 8.53125 -6.609375 "/></g></g></g></svg>